<svg width="323" height="304" viewBox="0 0 323 304" fill="none" xmlns="http://www.w3.org/2000/svg">
<mask id="mask0_119_1403" style="mask-type:alpha" maskUnits="userSpaceOnUse" x="0" y="0" width="323" height="304">
<path d="M0 6C0 2.68629 2.68629 0 6 0H317C320.314 0 323 2.68629 323 6V301C323 302.657 321.657 304 320 304H19C8.50659 304 0 295.493 0 285V6Z" fill="#616161"/>
</mask>
<g mask="url(#mask0_119_1403)">
<path fill-rule="evenodd" clip-rule="evenodd" d="M19 0.0245668C8.41887 0.545616 0 9.28964 0 20V284C0 295.046 8.95431 304 20 304H303C314.046 304 323 295.046 323 284V20C323 8.95431 314.046 0 303 0H38V17C38 18.1046 37.1045 19 36 19H21C19.8954 19 19 18.1046 19 17V0.0245668Z" fill="#23273C"/>
<g filter="url(#filter0_d_119_1403)">
<mask id="mask1_119_1403" style="mask-type:alpha" maskUnits="userSpaceOnUse" x="38" y="152" width="247" height="152">
<path d="M38 158C38 154.686 40.6863 152 44 152H279C282.314 152 285 154.686 285 158V304H38V158Z" fill="#F9F9F9"/>
</mask>
<g mask="url(#mask1_119_1403)">
<path d="M38 167C38 158.716 44.7157 152 53 152H270C278.284 152 285 158.716 285 167V304H38V167Z" fill="#F9F9F9"/>
<path d="M38 167C38 158.716 44.7157 152 53 152H270C278.284 152 285 158.716 285 167V190H38V167Z" fill="#C591FF"/>
</g>
</g>
<g filter="url(#filter1_di_119_1403)">
<path fill-rule="evenodd" clip-rule="evenodd" d="M171 0H76V104C76 109.523 80.4772 114 86 114H237C242.523 114 247 109.523 247 104V0H209V93C209 94.1046 208.105 95 207 95H173C171.896 95 171 94.1046 171 93V0Z" fill="#D9D9D9"/>
</g>
</g>
<defs>
<filter id="filter0_d_119_1403" x="37" y="151" width="249" height="154" filterUnits="userSpaceOnUse" color-interpolation-filters="sRGB">
<feFlood flood-opacity="0" result="BackgroundImageFix"/>
<feColorMatrix in="SourceAlpha" type="matrix" values="0 0 0 0 0 0 0 0 0 0 0 0 0 0 0 0 0 0 127 0" result="hardAlpha"/>
<feOffset/>
<feGaussianBlur stdDeviation="0.5"/>
<feComposite in2="hardAlpha" operator="out"/>
<feColorMatrix type="matrix" values="0 0 0 0 0 0 0 0 0 0 0 0 0 0 0 0 0 0 0.79 0"/>
<feBlend mode="normal" in2="BackgroundImageFix" result="effect1_dropShadow_119_1403"/>
<feBlend mode="normal" in="SourceGraphic" in2="effect1_dropShadow_119_1403" result="shape"/>
</filter>
<filter id="filter1_di_119_1403" x="73.7" y="-2.3" width="175.6" height="118.6" filterUnits="userSpaceOnUse" color-interpolation-filters="sRGB">
<feFlood flood-opacity="0" result="BackgroundImageFix"/>
<feColorMatrix in="SourceAlpha" type="matrix" values="0 0 0 0 0 0 0 0 0 0 0 0 0 0 0 0 0 0 127 0" result="hardAlpha"/>
<feOffset/>
<feGaussianBlur stdDeviation="1.15"/>
<feComposite in2="hardAlpha" operator="out"/>
<feColorMatrix type="matrix" values="0 0 0 0 0 0 0 0 0 0 0 0 0 0 0 0 0 0 0.25 0"/>
<feBlend mode="normal" in2="BackgroundImageFix" result="effect1_dropShadow_119_1403"/>
<feBlend mode="normal" in="SourceGraphic" in2="effect1_dropShadow_119_1403" result="shape"/>
<feColorMatrix in="SourceAlpha" type="matrix" values="0 0 0 0 0 0 0 0 0 0 0 0 0 0 0 0 0 0 127 0" result="hardAlpha"/>
<feOffset/>
<feGaussianBlur stdDeviation="0.45"/>
<feComposite in2="hardAlpha" operator="arithmetic" k2="-1" k3="1"/>
<feColorMatrix type="matrix" values="0 0 0 0 1 0 0 0 0 1 0 0 0 0 1 0 0 0 1 0"/>
<feBlend mode="normal" in2="shape" result="effect2_innerShadow_119_1403"/>
</filter>
</defs>
</svg>
