<svg width="91" height="86" viewBox="0 0 91 86" fill="none" xmlns="http://www.w3.org/2000/svg">
<g filter="url(#filter0_d_38_347)">
<mask id="mask0_38_347" style="mask-type:alpha" maskUnits="userSpaceOnUse" x="4" y="4" width="83" height="78">
<path d="M4 10C4 6.68629 6.68629 4 10 4H80.875C84.1887 4 86.875 6.68629 86.875 10V79C86.875 80.6569 85.5319 82 83.875 82H7C5.34315 82 4 80.6569 4 79V10Z" fill="#616161"/>
</mask>
<g mask="url(#mask0_38_347)">
<path fill-rule="evenodd" clip-rule="evenodd" d="M8.87499 4H4V82H86.875V4H13.75V6.875C13.75 7.97957 12.8546 8.875 11.75 8.875H10.875C9.77042 8.875 8.87499 7.97957 8.87499 6.875V4Z" fill="#616161"/>
<g filter="url(#filter1_d_38_347)">
<mask id="mask1_38_347" style="mask-type:alpha" maskUnits="userSpaceOnUse" x="13" y="43" width="65" height="39">
<path d="M13.75 49C13.75 45.6863 16.4363 43 19.75 43H71.125C74.4387 43 77.125 45.6863 77.125 49V82H13.75V49Z" fill="#F9F9F9"/>
</mask>
<g mask="url(#mask1_38_347)">
<rect x="13.75" y="43" width="63.375" height="39" fill="#F9F9F9"/>
<rect x="13.75" y="43" width="63.375" height="9.75" fill="#B0D9FF"/>
</g>
</g>
<g filter="url(#filter2_di_38_347)">
<path fill-rule="evenodd" clip-rule="evenodd" d="M47.875 4H23.5V29.25C23.5 31.4591 25.2909 33.25 27.5 33.25H63.375C65.5841 33.25 67.375 31.4591 67.375 29.25V4H57.625V26.375C57.625 27.4796 56.7296 28.375 55.625 28.375H49.875C48.7705 28.375 47.875 27.4796 47.875 26.375V4Z" fill="#D9D9D9"/>
</g>
</g>
</g>
<defs>
<filter id="filter0_d_38_347" x="0" y="0" width="90.875" height="86" filterUnits="userSpaceOnUse" color-interpolation-filters="sRGB">
<feFlood flood-opacity="0" result="BackgroundImageFix"/>
<feColorMatrix in="SourceAlpha" type="matrix" values="0 0 0 0 0 0 0 0 0 0 0 0 0 0 0 0 0 0 127 0" result="hardAlpha"/>
<feOffset/>
<feGaussianBlur stdDeviation="2"/>
<feComposite in2="hardAlpha" operator="out"/>
<feColorMatrix type="matrix" values="0 0 0 0 0 0 0 0 0 0 0 0 0 0 0 0 0 0 0.25 0"/>
<feBlend mode="normal" in2="BackgroundImageFix" result="effect1_dropShadow_38_347"/>
<feBlend mode="normal" in="SourceGraphic" in2="effect1_dropShadow_38_347" result="shape"/>
</filter>
<filter id="filter1_d_38_347" x="12.75" y="42" width="65.375" height="41" filterUnits="userSpaceOnUse" color-interpolation-filters="sRGB">
<feFlood flood-opacity="0" result="BackgroundImageFix"/>
<feColorMatrix in="SourceAlpha" type="matrix" values="0 0 0 0 0 0 0 0 0 0 0 0 0 0 0 0 0 0 127 0" result="hardAlpha"/>
<feOffset/>
<feGaussianBlur stdDeviation="0.5"/>
<feComposite in2="hardAlpha" operator="out"/>
<feColorMatrix type="matrix" values="0 0 0 0 0 0 0 0 0 0 0 0 0 0 0 0 0 0 0.79 0"/>
<feBlend mode="normal" in2="BackgroundImageFix" result="effect1_dropShadow_38_347"/>
<feBlend mode="normal" in="SourceGraphic" in2="effect1_dropShadow_38_347" result="shape"/>
</filter>
<filter id="filter2_di_38_347" x="21.2" y="1.7" width="48.475" height="33.85" filterUnits="userSpaceOnUse" color-interpolation-filters="sRGB">
<feFlood flood-opacity="0" result="BackgroundImageFix"/>
<feColorMatrix in="SourceAlpha" type="matrix" values="0 0 0 0 0 0 0 0 0 0 0 0 0 0 0 0 0 0 127 0" result="hardAlpha"/>
<feOffset/>
<feGaussianBlur stdDeviation="1.15"/>
<feComposite in2="hardAlpha" operator="out"/>
<feColorMatrix type="matrix" values="0 0 0 0 0 0 0 0 0 0 0 0 0 0 0 0 0 0 0.25 0"/>
<feBlend mode="normal" in2="BackgroundImageFix" result="effect1_dropShadow_38_347"/>
<feBlend mode="normal" in="SourceGraphic" in2="effect1_dropShadow_38_347" result="shape"/>
<feColorMatrix in="SourceAlpha" type="matrix" values="0 0 0 0 0 0 0 0 0 0 0 0 0 0 0 0 0 0 127 0" result="hardAlpha"/>
<feOffset/>
<feGaussianBlur stdDeviation="0.45"/>
<feComposite in2="hardAlpha" operator="arithmetic" k2="-1" k3="1"/>
<feColorMatrix type="matrix" values="0 0 0 0 1 0 0 0 0 1 0 0 0 0 1 0 0 0 1 0"/>
<feBlend mode="normal" in2="shape" result="effect2_innerShadow_38_347"/>
</filter>
</defs>
</svg>
