<svg width="182" height="179" viewBox="0 0 182 179" fill="none" xmlns="http://www.w3.org/2000/svg">
<path fill-rule="evenodd" clip-rule="evenodd" d="M90.7289 0C40.5581 0 0 41.0208 0 91.7692C0 132.335 25.987 166.673 62.0379 178.827C66.5451 179.74 68.1961 176.852 68.1961 174.422C68.1961 172.295 68.0476 165.003 68.0476 157.404C42.809 162.875 37.5533 146.465 37.5533 146.465C33.4973 135.829 27.4876 133.096 27.4876 133.096C19.227 127.474 28.0893 127.474 28.0893 127.474C37.2524 128.082 42.0606 136.894 42.0606 136.894C50.1707 150.871 63.2394 146.922 68.497 144.49C69.2473 138.565 71.6523 134.463 74.2059 132.184C54.0763 130.057 32.8974 122.156 32.8974 86.9064C32.8974 76.8786 36.5003 68.6745 42.2091 62.2939C41.3084 60.0153 38.1531 50.5936 43.1117 37.9834C43.1117 37.9834 50.7724 35.552 68.0457 47.4033C75.441 45.3945 83.0677 44.3726 90.7289 44.364C98.3896 44.364 106.199 45.4287 113.41 47.4033C130.685 35.552 138.346 37.9834 138.346 37.9834C143.305 50.5936 140.147 60.0153 139.247 62.2939C145.106 68.6745 148.56 76.8786 148.56 86.9064C148.56 122.156 127.381 129.904 107.101 132.184C110.407 135.07 113.26 140.539 113.26 149.2C113.26 161.506 113.111 171.383 113.111 174.421C113.111 176.852 114.764 179.74 119.269 178.828C155.32 166.671 181.307 132.335 181.307 91.7692C181.456 41.0208 140.749 0 90.7289 0Z" fill="white"/>
</svg>
